<svg width="157" height="43" viewBox="0 0 157 43" fill="none" xmlns="http://www.w3.org/2000/svg">
<path d="M11.4084 25.9765C11.4084 28.8908 13.771 31.2533 16.6852 31.2533C19.5995 31.2533 21.962 28.8908 21.962 25.9765C21.962 23.0623 19.5995 20.6998 16.6852 20.6998C13.771 20.6998 11.4084 23.0623 11.4084 25.9765Z" fill="url(#paint0_linear)"/>
<path d="M24.4399 14.4426H29.0671V9.81536H24.4399V14.4426Z" fill="url(#paint1_linear)"/>
<path d="M20.3679 7.59888H24.9951V2.97166H20.3679V7.59888Z" fill="url(#paint2_linear)"/>
<path d="M26.4275 2.97076H29.3983V-2.81334e-05H26.4275V2.97076Z" fill="url(#paint3_linear)"/>
<path d="M23.9847 21.2845V26.7275C23.9847 28.349 23.3517 29.9065 22.2206 31.0683L21.9033 31.3943C20.7318 32.5975 19.1239 33.2762 17.4446 33.2762H11.9929V42.661H21.3778V36.892C21.3778 35.2706 22.0107 33.7131 23.1417 32.5513C24.3131 31.348 25.9212 30.6693 27.6005 30.6693H33.3695V21.2845H23.9847Z" fill="url(#paint4_linear)"/>
<path d="M11.9917 9.29221V15.0612C11.9917 16.6826 11.3588 18.2401 10.2277 19.4019H10.2277C9.05628 20.6051 7.44823 21.2838 5.76897 21.2838H0V30.6687H9.38485V25.2255C9.38485 23.6041 10.0178 22.0466 11.1488 20.8848L11.4661 20.5589C12.6376 19.3557 14.2455 18.6769 15.9248 18.6769H21.3766V9.29212H11.9917V9.29221Z" fill="url(#paint5_linear)"/>
<path d="M55.5902 30.9688V23.764C55.5902 21.6697 54.4453 20.0779 52.2671 20.0779C50.1728 20.0779 48.7484 21.8373 48.7484 23.9316V30.9688H45.3695V17.1738H48.4134L48.6368 19.0447C50.0331 17.6764 51.4293 16.9783 53.1608 16.9783C56.3999 16.9783 58.9972 19.4079 58.9972 23.7361V30.9688H55.5902Z" fill="#4D4D4D"/>
<path d="M61.9274 30.9688H65.3344V17.1458H61.9274V30.9688ZM65.6416 13.32C65.6416 15.973 61.6202 15.973 61.6202 13.32C61.6202 10.6673 65.6416 10.6673 65.6416 13.32Z" fill="#4D4D4D"/>
<path d="M77.5655 30.9688V23.5966C77.5655 21.7813 76.616 20.1338 74.7449 20.1338C72.902 20.1338 71.8129 21.7813 71.8129 23.5966V30.9688H68.4059V17.1737H71.5614L71.8129 18.8492C72.5389 17.453 74.1306 16.9504 75.4431 16.9504C77.0907 16.9504 78.7382 17.6206 79.5201 19.5195C80.749 17.5647 82.3407 17.0061 84.1279 17.0061C88.0373 17.0061 89.9641 19.4079 89.9641 23.5406V30.9688H86.5573V23.5406C86.5573 21.7256 85.8032 20.1895 83.9603 20.1895C82.1171 20.1895 80.9723 21.7813 80.9723 23.5966V30.9688H77.5655Z" fill="#4D4D4D"/>
<path d="M96.1887 24.0715C96.1887 26.4731 97.9201 28.1206 100.098 28.1206C102.248 28.1206 104.092 26.5569 104.092 24.0715C104.092 21.6698 102.248 20.0502 100.098 20.0502C97.9201 20.0502 96.1887 21.5862 96.1887 24.0715ZM107.722 11.4492V30.969H104.538L104.315 29.0701C103.254 30.7176 101.55 31.2762 99.8748 31.2762C95.8256 31.2762 92.7819 28.5953 92.7819 24.0715C92.7819 19.3242 95.7698 16.8667 99.791 16.8667C101.243 16.8667 103.505 17.6487 104.315 19.0728V11.4492H107.722Z" fill="#4D4D4D"/>
<path d="M113.445 24.0995C113.445 26.1938 114.701 28.1487 117.187 28.1487C119.672 28.1487 120.928 26.1938 120.928 24.0995C120.928 22.0329 119.476 20.0224 117.187 20.0224C114.729 20.0224 113.445 22.0329 113.445 24.0995ZM124.363 24.0995C124.363 28.0648 121.655 31.2762 117.187 31.2762C112.719 31.2762 110.038 28.0648 110.038 24.0995C110.038 20.1619 112.774 16.9227 117.158 16.9227C121.543 16.9227 124.363 20.1619 124.363 24.0995Z" fill="#4D4D4D"/>
<path d="M136.843 30.9688V23.764C136.843 21.6697 135.699 20.0779 133.52 20.0779C131.426 20.0779 130.002 21.8373 130.002 23.9316V30.9688H126.623V17.1738H129.667L129.89 19.0447C131.286 17.6764 132.683 16.9783 134.414 16.9783C137.653 16.9783 140.25 19.4079 140.25 23.7361V30.9688H136.843Z" fill="#4D4D4D"/>
<path d="M153.572 22.4782C153.349 20.691 151.953 19.7976 149.998 19.7976C148.155 19.7976 146.647 20.691 146.144 22.4782H153.572ZM146.088 25.2987C146.312 27.0021 147.792 28.2308 150.193 28.2308C151.45 28.2308 153.098 27.7562 153.88 26.9464L156.058 29.0966C154.605 30.6045 152.232 31.3306 150.137 31.3306C145.39 31.3306 142.57 28.3984 142.57 23.9863C142.57 19.7976 145.418 16.7815 149.886 16.7815C154.494 16.7815 157.37 19.63 156.84 25.2987H146.088Z" fill="#4D4D4D"/>
<defs>
<linearGradient id="paint0_linear" x1="16.6852" y1="5.89924" x2="16.6852" y2="40.3806" gradientUnits="userSpaceOnUse">
<stop stop-color="#29ABE2"/>
<stop offset="1" stop-color="#22B573"/>
</linearGradient>
<linearGradient id="paint1_linear" x1="26.7536" y1="5.9009" x2="26.7536" y2="40.3823" gradientUnits="userSpaceOnUse">
<stop stop-color="#29ABE2"/>
<stop offset="1" stop-color="#22B573"/>
</linearGradient>
<linearGradient id="paint2_linear" x1="22.6815" y1="5.90027" x2="22.6815" y2="40.3816" gradientUnits="userSpaceOnUse">
<stop stop-color="#29ABE2"/>
<stop offset="1" stop-color="#22B573"/>
</linearGradient>
<linearGradient id="paint3_linear" x1="27.9129" y1="5.89936" x2="27.9129" y2="40.3806" gradientUnits="userSpaceOnUse">
<stop stop-color="#29ABE2"/>
<stop offset="1" stop-color="#22B573"/>
</linearGradient>
<linearGradient id="paint4_linear" x1="22.6812" y1="5.89968" x2="22.6812" y2="40.381" gradientUnits="userSpaceOnUse">
<stop stop-color="#29ABE2"/>
<stop offset="1" stop-color="#22B573"/>
</linearGradient>
<linearGradient id="paint5_linear" x1="10.6883" y1="5.89907" x2="10.6883" y2="40.3805" gradientUnits="userSpaceOnUse">
<stop stop-color="#29ABE2"/>
<stop offset="1" stop-color="#22B573"/>
</linearGradient>
</defs>
</svg>
